<mxfile host="app.diagrams.net" agent="Mozilla/5.0 (Windows NT 10.0; Win64; x64) AppleWebKit/537.36 (KHTML, like Gecko) Chrome/132.0.0.0 Safari/537.36" version="26.0.11">
  <diagram name="Page-1" id="Fw7KpS8UE5WxsYBcnNSg">
    <mxGraphModel dx="1786" dy="511" grid="1" gridSize="10" guides="1" tooltips="1" connect="1" arrows="1" fold="1" page="1" pageScale="1" pageWidth="850" pageHeight="1100" math="0" shadow="0">
      <root>
        <mxCell id="0" />
        <mxCell id="1" parent="0" />
        <mxCell id="-_MlH-yc_YpSr4E3qzre-74" style="edgeStyle=orthogonalEdgeStyle;rounded=0;orthogonalLoop=1;jettySize=auto;html=1;exitX=1;exitY=0.5;exitDx=0;exitDy=0;" parent="1" source="-_MlH-yc_YpSr4E3qzre-1" target="-_MlH-yc_YpSr4E3qzre-72" edge="1">
          <mxGeometry relative="1" as="geometry" />
        </mxCell>
        <mxCell id="-_MlH-yc_YpSr4E3qzre-1" value="recurso: tecnico especialista&lt;div&gt;Tiempo: expo(40) minutos&lt;/div&gt;&lt;div&gt;&lt;br&gt;&lt;/div&gt;&lt;div&gt;solicita, usa y libera&lt;/div&gt;" style="whiteSpace=wrap;html=1;aspect=fixed;fillColor=#dae8fc;strokeColor=#6c8ebf;" parent="1" vertex="1">
          <mxGeometry x="130" y="140" width="110" height="110" as="geometry" />
        </mxCell>
        <mxCell id="-_MlH-yc_YpSr4E3qzre-2" value="" style="endArrow=classic;html=1;rounded=0;" parent="1" target="-_MlH-yc_YpSr4E3qzre-1" edge="1">
          <mxGeometry width="50" height="50" relative="1" as="geometry">
            <mxPoint x="20" y="200" as="sourcePoint" />
            <mxPoint x="70" y="160" as="targetPoint" />
          </mxGeometry>
        </mxCell>
        <mxCell id="-_MlH-yc_YpSr4E3qzre-7" value="Llegada: clientes&lt;div&gt;expo(45) minutos&lt;br&gt;&lt;div&gt;primera llegada: 60 minutos&lt;/div&gt;&lt;/div&gt;" style="text;html=1;align=left;verticalAlign=middle;whiteSpace=wrap;rounded=0;" parent="1" vertex="1">
          <mxGeometry x="-30" y="450" width="200" height="30" as="geometry" />
        </mxCell>
        <mxCell id="-_MlH-yc_YpSr4E3qzre-8" value="atencion tecnico" style="text;html=1;align=center;verticalAlign=middle;whiteSpace=wrap;rounded=0;" parent="1" vertex="1">
          <mxGeometry x="140" y="100" width="90" height="30" as="geometry" />
        </mxCell>
        <mxCell id="-_MlH-yc_YpSr4E3qzre-77" style="edgeStyle=orthogonalEdgeStyle;rounded=0;orthogonalLoop=1;jettySize=auto;html=1;exitX=1;exitY=0.5;exitDx=0;exitDy=0;" parent="1" source="-_MlH-yc_YpSr4E3qzre-10" target="-_MlH-yc_YpSr4E3qzre-76" edge="1">
          <mxGeometry relative="1" as="geometry" />
        </mxCell>
        <mxCell id="-_MlH-yc_YpSr4E3qzre-10" value="recurso:inspector&lt;div&gt;tiempo: unif(15, 30) minutos&lt;/div&gt;&lt;div&gt;prioridad: prioridad&lt;/div&gt;&lt;div&gt;&lt;br&gt;&lt;/div&gt;&lt;div&gt;solicita, usa y libera&lt;/div&gt;" style="whiteSpace=wrap;html=1;aspect=fixed;fillColor=#dae8fc;strokeColor=#6c8ebf;" parent="1" vertex="1">
          <mxGeometry x="465" y="120" width="150" height="150" as="geometry" />
        </mxCell>
        <mxCell id="-_MlH-yc_YpSr4E3qzre-81" style="edgeStyle=orthogonalEdgeStyle;rounded=0;orthogonalLoop=1;jettySize=auto;html=1;exitX=0.5;exitY=0;exitDx=0;exitDy=0;entryX=1;entryY=0.5;entryDx=0;entryDy=0;" parent="1" source="-_MlH-yc_YpSr4E3qzre-14" target="-_MlH-yc_YpSr4E3qzre-80" edge="1">
          <mxGeometry relative="1" as="geometry" />
        </mxCell>
        <mxCell id="-_MlH-yc_YpSr4E3qzre-14" value="recurso: tecnico ajuste&lt;div&gt;tiempo:&amp;nbsp;norm( 30, 10) minutos&lt;/div&gt;&lt;div&gt;&lt;br&gt;&lt;/div&gt;&lt;div&gt;solicita, usa y libera&lt;/div&gt;" style="whiteSpace=wrap;html=1;aspect=fixed;fillColor=#dae8fc;strokeColor=#6c8ebf;" parent="1" vertex="1">
          <mxGeometry x="850" y="130" width="130" height="130" as="geometry" />
        </mxCell>
        <mxCell id="-_MlH-yc_YpSr4E3qzre-16" value="control de calidad" style="text;html=1;align=center;verticalAlign=middle;whiteSpace=wrap;rounded=0;" parent="1" vertex="1">
          <mxGeometry x="490" y="90" width="100" height="30" as="geometry" />
        </mxCell>
        <mxCell id="-_MlH-yc_YpSr4E3qzre-17" value="ajuste" style="text;html=1;align=center;verticalAlign=middle;whiteSpace=wrap;rounded=0;" parent="1" vertex="1">
          <mxGeometry x="885" y="100" width="60" height="30" as="geometry" />
        </mxCell>
        <mxCell id="-_MlH-yc_YpSr4E3qzre-19" value="Bodega" style="rounded=0;whiteSpace=wrap;html=1;fillColor=#d5e8d4;strokeColor=#82b366;" parent="1" vertex="1">
          <mxGeometry x="900" y="380" width="80" height="35" as="geometry" />
        </mxCell>
        <mxCell id="-_MlH-yc_YpSr4E3qzre-22" value="" style="endArrow=classic;html=1;rounded=0;entryX=0;entryY=0.5;entryDx=0;entryDy=0;" parent="1" target="-_MlH-yc_YpSr4E3qzre-89" edge="1">
          <mxGeometry width="50" height="50" relative="1" as="geometry">
            <mxPoint y="493" as="sourcePoint" />
            <mxPoint x="80" y="490" as="targetPoint" />
          </mxGeometry>
        </mxCell>
        <mxCell id="-_MlH-yc_YpSr4E3qzre-34" value="Llegada: ordenadores&lt;div&gt;expo(50) minutos&lt;/div&gt;&lt;div&gt;primera llegada: 0 minutos&lt;/div&gt;" style="text;html=1;align=left;verticalAlign=middle;whiteSpace=wrap;rounded=0;" parent="1" vertex="1">
          <mxGeometry x="-30" y="160" width="150" height="30" as="geometry" />
        </mxCell>
        <mxCell id="-_MlH-yc_YpSr4E3qzre-75" style="edgeStyle=orthogonalEdgeStyle;rounded=0;orthogonalLoop=1;jettySize=auto;html=1;exitX=1;exitY=0.5;exitDx=0;exitDy=0;" parent="1" source="-_MlH-yc_YpSr4E3qzre-72" target="-_MlH-yc_YpSr4E3qzre-10" edge="1">
          <mxGeometry relative="1" as="geometry" />
        </mxCell>
        <mxCell id="-_MlH-yc_YpSr4E3qzre-72" value="prioridad: 2&lt;div&gt;en_ajuste: 0&lt;/div&gt;" style="rounded=0;whiteSpace=wrap;html=1;fillColor=#e1d5e7;strokeColor=#9673a6;" parent="1" vertex="1">
          <mxGeometry x="290" y="165" width="120" height="60" as="geometry" />
        </mxCell>
        <mxCell id="-_MlH-yc_YpSr4E3qzre-78" style="edgeStyle=orthogonalEdgeStyle;rounded=0;orthogonalLoop=1;jettySize=auto;html=1;exitX=1;exitY=0.5;exitDx=0;exitDy=0;entryX=0;entryY=0.5;entryDx=0;entryDy=0;" parent="1" source="-_MlH-yc_YpSr4E3qzre-76" target="-_MlH-yc_YpSr4E3qzre-14" edge="1">
          <mxGeometry relative="1" as="geometry" />
        </mxCell>
        <mxCell id="-_MlH-yc_YpSr4E3qzre-79" value="75% a ajuste" style="edgeLabel;html=1;align=center;verticalAlign=middle;resizable=0;points=[];" parent="-_MlH-yc_YpSr4E3qzre-78" vertex="1" connectable="0">
          <mxGeometry x="-0.3926" y="-8" relative="1" as="geometry">
            <mxPoint as="offset" />
          </mxGeometry>
        </mxCell>
        <mxCell id="-_MlH-yc_YpSr4E3qzre-84" style="edgeStyle=orthogonalEdgeStyle;rounded=0;orthogonalLoop=1;jettySize=auto;html=1;exitX=0.5;exitY=1;exitDx=0;exitDy=0;" parent="1" source="-_MlH-yc_YpSr4E3qzre-76" target="-_MlH-yc_YpSr4E3qzre-83" edge="1">
          <mxGeometry relative="1" as="geometry" />
        </mxCell>
        <mxCell id="-_MlH-yc_YpSr4E3qzre-87" value="25% a empacado" style="edgeLabel;html=1;align=center;verticalAlign=middle;resizable=0;points=[];" parent="-_MlH-yc_YpSr4E3qzre-84" vertex="1" connectable="0">
          <mxGeometry x="-0.4852" y="4" relative="1" as="geometry">
            <mxPoint as="offset" />
          </mxGeometry>
        </mxCell>
        <mxCell id="-_MlH-yc_YpSr4E3qzre-76" value="a ajuste?" style="rhombus;whiteSpace=wrap;html=1;fillColor=#fff2cc;strokeColor=#d6b656;" parent="1" vertex="1">
          <mxGeometry x="670" y="155" width="80" height="80" as="geometry" />
        </mxCell>
        <mxCell id="-_MlH-yc_YpSr4E3qzre-82" style="edgeStyle=orthogonalEdgeStyle;rounded=0;orthogonalLoop=1;jettySize=auto;html=1;exitX=0;exitY=0.5;exitDx=0;exitDy=0;entryX=0;entryY=0.5;entryDx=0;entryDy=0;" parent="1" source="-_MlH-yc_YpSr4E3qzre-80" target="-_MlH-yc_YpSr4E3qzre-10" edge="1">
          <mxGeometry relative="1" as="geometry" />
        </mxCell>
        <mxCell id="-_MlH-yc_YpSr4E3qzre-80" value="prioridad: 1&lt;div&gt;en_ajuste: en_ajuste + 1&lt;/div&gt;" style="rounded=0;whiteSpace=wrap;html=1;fillColor=#e1d5e7;strokeColor=#9673a6;" parent="1" vertex="1">
          <mxGeometry x="660" y="10" width="140" height="60" as="geometry" />
        </mxCell>
        <mxCell id="-_MlH-yc_YpSr4E3qzre-88" style="edgeStyle=orthogonalEdgeStyle;rounded=0;orthogonalLoop=1;jettySize=auto;html=1;exitX=0.5;exitY=1;exitDx=0;exitDy=0;" parent="1" source="-_MlH-yc_YpSr4E3qzre-83" target="-_MlH-yc_YpSr4E3qzre-85" edge="1">
          <mxGeometry relative="1" as="geometry" />
        </mxCell>
        <mxCell id="-_MlH-yc_YpSr4E3qzre-83" value="prioridad: 2&lt;div&gt;tiempo bodeguero:&amp;nbsp;expo( 10) minutos&lt;/div&gt;" style="rounded=0;whiteSpace=wrap;html=1;fillColor=#e1d5e7;strokeColor=#9673a6;" parent="1" vertex="1">
          <mxGeometry x="620" y="300" width="180" height="60" as="geometry" />
        </mxCell>
        <mxCell id="-_MlH-yc_YpSr4E3qzre-92" style="edgeStyle=orthogonalEdgeStyle;rounded=0;orthogonalLoop=1;jettySize=auto;html=1;exitX=1;exitY=0.5;exitDx=0;exitDy=0;" parent="1" source="-_MlH-yc_YpSr4E3qzre-85" target="-_MlH-yc_YpSr4E3qzre-91" edge="1">
          <mxGeometry relative="1" as="geometry" />
        </mxCell>
        <mxCell id="-_MlH-yc_YpSr4E3qzre-85" value="recurso: bodeguero&lt;div&gt;tiempo: tiempo bodeguero&lt;/div&gt;&lt;div&gt;prioridad: prioridad&lt;/div&gt;&lt;div&gt;&lt;br&gt;&lt;/div&gt;&lt;div&gt;solicita, usa y libera&lt;/div&gt;" style="whiteSpace=wrap;html=1;aspect=fixed;fillColor=#dae8fc;strokeColor=#6c8ebf;" parent="1" vertex="1">
          <mxGeometry x="637.5" y="420" width="145" height="145" as="geometry" />
        </mxCell>
        <mxCell id="-_MlH-yc_YpSr4E3qzre-90" style="edgeStyle=orthogonalEdgeStyle;rounded=0;orthogonalLoop=1;jettySize=auto;html=1;exitX=1;exitY=0.5;exitDx=0;exitDy=0;" parent="1" source="-_MlH-yc_YpSr4E3qzre-89" target="-_MlH-yc_YpSr4E3qzre-85" edge="1">
          <mxGeometry relative="1" as="geometry" />
        </mxCell>
        <mxCell id="-_MlH-yc_YpSr4E3qzre-89" value="prioridad: 1&lt;div&gt;tiempo bodeguero:&amp;nbsp;unif(5, 10) minutos&lt;/div&gt;" style="rounded=0;whiteSpace=wrap;html=1;fillColor=#e1d5e7;strokeColor=#9673a6;" parent="1" vertex="1">
          <mxGeometry x="270" y="462.5" width="180" height="60" as="geometry" />
        </mxCell>
        <mxCell id="-_MlH-yc_YpSr4E3qzre-93" style="edgeStyle=orthogonalEdgeStyle;rounded=0;orthogonalLoop=1;jettySize=auto;html=1;exitX=1;exitY=0.5;exitDx=0;exitDy=0;" parent="1" source="-_MlH-yc_YpSr4E3qzre-91" target="-_MlH-yc_YpSr4E3qzre-19" edge="1">
          <mxGeometry relative="1" as="geometry" />
        </mxCell>
        <mxCell id="-_MlH-yc_YpSr4E3qzre-97" value="ordenador" style="edgeLabel;html=1;align=center;verticalAlign=middle;resizable=0;points=[];" parent="-_MlH-yc_YpSr4E3qzre-93" vertex="1" connectable="0">
          <mxGeometry x="0.1722" relative="1" as="geometry">
            <mxPoint as="offset" />
          </mxGeometry>
        </mxCell>
        <mxCell id="-_MlH-yc_YpSr4E3qzre-96" style="edgeStyle=orthogonalEdgeStyle;rounded=0;orthogonalLoop=1;jettySize=auto;html=1;exitX=0.5;exitY=1;exitDx=0;exitDy=0;" parent="1" source="-_MlH-yc_YpSr4E3qzre-91" target="-_MlH-yc_YpSr4E3qzre-94" edge="1">
          <mxGeometry relative="1" as="geometry" />
        </mxCell>
        <mxCell id="-_MlH-yc_YpSr4E3qzre-98" value="cliente" style="edgeLabel;html=1;align=center;verticalAlign=middle;resizable=0;points=[];" parent="-_MlH-yc_YpSr4E3qzre-96" vertex="1" connectable="0">
          <mxGeometry x="0.0898" y="1" relative="1" as="geometry">
            <mxPoint as="offset" />
          </mxGeometry>
        </mxCell>
        <mxCell id="-_MlH-yc_YpSr4E3qzre-91" value="tipo entidad?" style="rhombus;whiteSpace=wrap;html=1;" parent="1" vertex="1">
          <mxGeometry x="820" y="452.5" width="80" height="80" as="geometry" />
        </mxCell>
        <mxCell id="-_MlH-yc_YpSr4E3qzre-94" value="Retiro ordenador" style="rounded=0;whiteSpace=wrap;html=1;fillColor=#d5e8d4;strokeColor=#82b366;" parent="1" vertex="1">
          <mxGeometry x="820" y="590" width="80" height="35" as="geometry" />
        </mxCell>
      </root>
    </mxGraphModel>
  </diagram>
</mxfile>
